{"title":"Smosh.The.Movie.2015.HDRip.x264-MenaceIISociety","uid":12163377,"size":955727283,"categoryP":"video","categoryS":"movies","magnet":"?xt=urn:btih:a96426afc95f817c41e453b6c16fe435b87554c6&amp;dn=Smosh.The.Movie.2015.HDRip.x264-MenaceIISociety&amp;tr=udp%3A%2F%2Ftracker.openbittorrent.com%3A80&amp;tr=udp%3A%2F%2Fopen.demonii.com%3A1337&amp;tr=udp%3A%2F%2Ftracker.coppersurfer.tk%3A6969&amp;tr=udp%3A%2F%2Fexodus.desync.com%3A6969","seeders":0,"leechers":0,"uploader":"TvTeam","files":4,"time":1437970912,"description":"------------------------------------------------------------------------\n\n &lt;a href=&quot; https://www.torrenting.com&quot; rel=&quot;nofollow&quot; target=&quot;_NEW&quot;&gt; https://www.torrenting.com&lt;/a&gt;\n\nSign up is OPEN - for time being. Come and have fun\n\n.......................................................................................................................[img]http://s28.postimg.org/86bhjyzrx/V1_SX214_AL.jpg[/img]\n\nSmosh.The.Movie.2015.HDRip.x264-MenaceIISociety &lt;a href=&quot;\nhttp://www.imdb.com/title/tt4184878/&quot; rel=&quot;nofollow&quot; target=&quot;_NEW&quot;&gt;\nhttp://www.imdb.com/title/tt4184878/&lt;/a&gt;\n\nSource: 1080p-NiKON [THANKS]\n\nGeneral\nComplete name                            : Smosh.The.Movie.2015.HDRip.x264-MenaceIISociety.mp4\nFormat                                   : MPEG-4\nFormat profile                           : Base Media\nCodec ID                                 : isom\nFile size                                : 893 MiB\nDuration                                 : 1h 23mn\nOverall bit rate mode                    : Variable\nOverall bit rate                         : 1 500 Kbps\nEncoded date                             : UTC 2015-07-27 01:52:22\nTagged date                              : UTC 2015-07-27 01:52:22\n\nVideo\nID                                       : 1\nFormat                                   : AVC\nFormat/Info                              : Advanced Video Codec\nFormat profile                           : &lt;a class=&quot;__cf_email__&quot; href=&quot;/cdn-cgi/l/email-protection&quot; data-cfemail=&quot;4008292728000c746e71&quot;&gt;[email&amp;#160;protected]&lt;/a&gt;&lt;script data-cfhash='f9e31' type=&quot;text/javascript&quot;&gt;\n/* &lt;![CDATA[ */!function(){try{var t=&quot;currentScript&quot;in document?document.currentScript:function(){for(var t=document.getElementsByTagName(&quot;script&quot;),e=t.length;e--;)if(t[e].getAttribute(&quot;data-cfhash&quot;))return t[e]}();if(t&amp;&amp;t.previousSibling){var e,r,n,i,c=t.previousSibling,a=c.getAttribute(&quot;data-cfemail&quot;);if(a){for(e=&quot;&quot;,r=parseInt(a.substr(0,2),16),n=2;a.length-n;n+=2)i=parseInt(a.substr(n,2),16)^r,e+=String.fromCharCode(i);e=document.createTextNode(e),c.parentNode.replaceChild(e,c)}t.parentNode.removeChild(t);}}catch(u){}}()/* ]]&gt; */&lt;/script&gt;\nFormat settings, CABAC                   : Yes\nFormat settings, ReFrames                : 3 frames\nCodec ID                                 : avc1\nCodec ID/Info                            : Advanced Video Coding\nDuration                                 : 1h 23mn\nBit rate mode                            : Variable\nBit rate                                 : 1 158 Kbps\nMaximum bit rate                         : 40.0 Mbps\nWidth                                    : 720 pixels\nHeight                                   : 400 pixels\nDisplay aspect ratio                     : 16:9\nFrame rate mode                          : Constant\nFrame rate                               : 23.976 fps\nColor space                              : YUV\nChroma subsampling                       : 4:2:0\nBit depth                                : 8 bits\nScan type                                : Progressive\nBits/(Pixel*Frame)                       : 0.168\nStream size                              : 690 MiB (77%)\nWriting library                          : x264 core 146 r2538 121396c\n\nAudio\nID                                       : 2\nFormat                                   : AAC\nFormat/Info                              : Advanced Audio Codec\nFormat profile                           : LC\nCodec ID                                 : 40\nDuration                                 : 1h 23mn\nBit rate mode                            : Variable\nBit rate                                 : 338 Kbps\nMaximum bit rate                         : 389 Kbps\nChannel(s)                               : 6 channels\nChannel positions                        : Front: L C R, Side: L R, LFE\nSampling rate                            : 48.0 KHz\nCompression mode                         : Lossy\nStream size                              : 201 MiB (23%)\nLanguage                                 : English\nEncoded date                             : UTC 2015-07-27 00:48:25\nTagged date                              : UTC 2015-07-27 01:53:45\n\n[img]http://s23.postimg.org/xzyb70zm3/vlcsnap_2015_07_27_03h55m04s617.jpg[/img]\n[img]http://s23.postimg.org/f90zaluff/vlcsnap_2015_07_27_03h55m16s525.jpg[/img]\n[img]http://s23.postimg.org/5yk9tbubv/vlcsnap_2015_07_27_03h55m43s160.jpg[/img]\n[img]http://s23.postimg.org/5kixtqa8b/vlcsnap_2015_07_27_03h56m20s792.jpg[/img]\n[img]http://s23.postimg.org/5j900b8ej/vlcsnap_2015_07_27_03h56m28s271.jpg[/img] \n\n[img]http://s17.postimg.org/r1iiyw8yn/Untitled_1.png[/img]","torrent":{"xt":"urn:btih:a96426afc95f817c41e453b6c16fe435b87554c6","amp;dn":"Smosh.The.Movie.2015.HDRip.x264-MenaceIISociety","amp;tr":["udp%3A%2F%2Ftracker.openbittorrent.com%3A80","udp%3A%2F%2Fopen.demonii.com%3A1337","udp%3A%2F%2Ftracker.coppersurfer.tk%3A6969","udp%3A%2F%2Fexodus.desync.com%3A6969"],"infoHash":"a96426afc95f817c41e453b6c16fe435b87554c6","infoHashBuffer":{"type":"Buffer","data":[169,100,38,175,201,95,129,124,65,228,83,182,193,111,228,53,184,117,84,198]},"announce":[],"urlList":[]}}